<svg xmlns="http://www.w3.org/2000/svg" xmlns:xlink="http://www.w3.org/1999/xlink" version="1.1" x="0px" y="0px" viewBox="0 0 100 125" style="enable-background:new 0 0 100 100;" xml:space="preserve"><path d="M63.6,69.5c4.4,7.8,9.7,13.8,9.7,13.8V95H23.7V83.3c0,0,4.5-4.3,8.7-10.5c-1.8-5.8-1.2-11.3-1.1-12  c0.4-3.1,1.2-9.1,5.7-12.9c2.7-2.3,5.9-3.2,9.9-7.7c2.6-2.9,2.3-3.8,2.2-4c-0.9-2-8.1-0.9-12.7,0.5c-3.9,1.2-6.9,2.9-8.9,4.2  c-2.2-3.4-4.3-6.8-6.5-10.2c6.7-5.8,13.4-11.7,20-17.6c13.4,0.4,25,6.2,29.1,15.6c1.6,3.6,2.7,9.4,1.5,15.1c-1,4.8-2.9,6.6-6.2,16.9  c-1.7,5.3-1.8,6.7-1.7,7.9C63.6,69,63.6,69.3,63.6,69.5z M74.7,21.2c-0.6-1-2.9-4.8-7.4-8.4C57,4.5,44.9,4.8,41,5.1  c0,1.6,0,3.1,0,4.7c1.3-0.1,17.8-1.2,27.3,11c5.8,7.4,6.2,16.2,6.2,17.5c0.1,4.2-0.7,7.5-1.3,9.7c-1.5,6-4.1,10.5-5.9,13.3  c0.8,0.6,1.5,1.2,2.3,1.8c1.4-1.6,3.4-4.3,5.2-7.9C75.5,53.6,83.7,36.3,74.7,21.2z"/><text x="0" y="115" fill="#000000" font-size="5px" font-weight="bold" font-family="'Helvetica Neue', Helvetica, Arial-Unicode, Arial, Sans-serif">Created by Vasily Gedzun</text><text x="0" y="120" fill="#000000" font-size="5px" font-weight="bold" font-family="'Helvetica Neue', Helvetica, Arial-Unicode, Arial, Sans-serif">from the Noun Project</text></svg>